<?xml version="1.0" standalone="no"?>
<!DOCTYPE svg PUBLIC "-//W3C//DTD SVG 20010904//EN"
 "http://www.w3.org/TR/2001/REC-SVG-20010904/DTD/svg10.dtd">
<svg version="1.0" xmlns="http://www.w3.org/2000/svg"
 width="300.000000pt" height="300.000000pt" viewBox="0 0 300.000000 300.000000"
 preserveAspectRatio="xMidYMid meet">

<g transform="translate(0.000000,300.000000) scale(0.100000,-0.100000)"
fill="#000000" stroke="none">
<path d="M862 1503 l3 -568 100 0 100 0 3 568 2 567 -105 0 -105 0 2 -567z"/>
<path d="M1937 2064 c-4 -4 -7 -261 -7 -571 l0 -563 105 0 105 0 -2 568 -3
567 -95 3 c-53 1 -99 0 -103 -4z"/>
<path d="M627 1954 c-4 -4 -7 -209 -7 -456 l0 -448 105 0 105 0 -2 453 -3 452
-95 3 c-53 1 -99 0 -103 -4z"/>
<path d="M2172 1498 l3 -453 100 0 100 0 3 453 2 452 -105 0 -105 0 2 -452z"/>
<path d="M382 1503 l3 -238 100 0 100 0 3 238 2 237 -105 0 -105 0 2 -237z"/>
<path d="M2417 1734 c-4 -4 -7 -112 -7 -241 l0 -233 105 0 105 0 -2 238 -3
237 -95 3 c-53 1 -99 0 -103 -4z"/>
<path d="M1110 1515 l0 -95 393 2 392 3 0 90 0 90 -392 3 -393 2 0 -95z"/>
</g>
</svg>
