<?xml version="1.0" standalone="no"?>
<!DOCTYPE svg PUBLIC "-//W3C//DTD SVG 20010904//EN"
 "http://www.w3.org/TR/2001/REC-SVG-20010904/DTD/svg10.dtd">
<svg version="1.0" xmlns="http://www.w3.org/2000/svg"
 width="200.000000pt" height="200.000000pt" viewBox="0 0 200.000000 200.000000"
 preserveAspectRatio="xMidYMid meet">

<g transform="translate(0.000000,200.000000) scale(0.100000,-0.100000)"
fill="#000000" stroke="none">
<path d="M72 1343 l3 -198 32 -20 32 -20 1 -301 c0 -279 1 -302 18 -317 24
-22 55 -21 75 1 15 16 17 54 17 320 0 244 3 302 13 302 8 0 23 10 34 23 18 20
21 40 27 197 4 96 4 183 1 193 -9 21 -41 22 -49 1 -3 -9 -6 -56 -6 -104 0 -90
-9 -112 -35 -90 -10 8 -15 40 -17 108 -3 89 -5 97 -23 97 -18 0 -20 -8 -23
-94 -3 -96 -12 -124 -37 -114 -11 4 -15 31 -17 106 -3 97 -4 102 -26 105 l-22
3 2 -198z"/>
<path d="M670 1524 c-66 -18 -149 -70 -184 -117 -49 -64 -69 -125 -69 -212 0
-44 5 -92 11 -107 l12 -28 174 0 175 0 68 95 c37 52 74 97 82 100 31 12 58
-28 135 -200 l79 -177 46 88 46 89 202 3 202 2 8 38 c4 20 8 69 7 107 -1 154
-104 280 -260 320 -103 26 -221 -10 -317 -99 l-45 -41 -49 44 c-97 88 -219
124 -323 95z"/>
<path d="M1809 1515 c-15 -8 -32 -29 -38 -46 -12 -34 -16 -534 -5 -563 3 -9
17 -16 30 -16 l24 0 0 -182 c0 -211 6 -233 60 -233 60 0 60 -1 60 508 0 499
-2 517 -55 537 -34 13 -44 12 -76 -5z"/>
<path d="M892 1050 l-52 -70 -185 0 c-102 0 -185 -2 -185 -5 0 -16 48 -98 92
-157 58 -79 154 -171 238 -228 73 -49 216 -120 244 -120 35 0 202 88 284 150
115 86 218 205 276 318 l17 32 -163 -2 -163 -3 -56 -109 c-58 -113 -77 -134
-106 -118 -9 6 -53 91 -98 191 -45 99 -84 183 -87 186 -3 3 -28 -26 -56 -65z"/>
</g>
</svg>
